<svg xmlns="http://www.w3.org/2000/svg" viewBox="0 0 186.41 64.92"><defs><style>.g{fill:#f3984c}.h{fill:#83be60}.i{fill:#65b230}.j{fill:#d12650}.k{fill:#e42625}.l{fill:#231f20}.m{fill:#547dbd}</style></defs><g id="b"><g id="c"><path d="M172.2 1.17s19.3 4.62 12.45 24.47c-7.6 22.04-6.09 10.2-9 25.5l-1.4 9.54-12.42 3.9-5.41-11.79s-3.45-4.81-8.47-3.78c-3.6.74-4.17-2.95-4.17-2.95l-2.56-12.24s-6.39-3.45-2.01-8.29c4.22-4.67 5.02-3.15 4.35-7.86-.99-6.98 8.1-21.07 28.63-16.5Z" style="fill:#fff"/><path d="m161.68 64.92-5.52-12.01s-3.38-4.6-8.16-3.62c-1.13.23-2.1.08-2.88-.47-1.33-.93-1.61-2.64-1.62-2.72L140.97 34c-.58-.34-3.09-1.93-3.52-4.38-.25-1.43.27-2.87 1.55-4.28 1.26-1.39 2.22-2.24 2.92-2.86 1.64-1.45 1.81-1.6 1.36-4.77-.44-3.09 1.05-8 5.38-12 3.28-3.03 10.7-7.68 23.59-4.82.08.02 8.42 2.09 12.23 9.03 2.39 4.36 2.53 9.68.42 15.81-3.63 10.51-5.2 13.37-6.14 15.07-1.02 1.86-1.33 2.42-2.85 10.39l-1.42 9.7-12.82 4.02Zm-12.33-16.33c4.34 0 7.27 3.99 7.3 4.04l5.34 11.61L174 60.47l1.37-9.36c1.54-8.08 1.86-8.65 2.91-10.57.93-1.69 2.49-4.51 6.1-14.98 2.06-5.97 1.93-11.14-.38-15.35-3.67-6.69-11.69-8.71-11.86-8.76-12.64-2.81-19.89 1.73-23.08 4.68-4.17 3.86-5.62 8.56-5.2 11.51.48 3.37.2 3.73-1.54 5.27-.69.61-1.64 1.45-2.88 2.82-1.15 1.27-1.63 2.55-1.41 3.81.42 2.44 3.31 4.03 3.34 4.05l.12.06 2.58 12.36s.26 1.57 1.39 2.36c.65.45 1.47.58 2.44.37.5-.1.99-.15 1.46-.15Z" style="fill:#020202"/><path class="m" d="M176.63 12.79c-.04.99.73 1.83 1.72 1.87.99.04 1.83-.72 1.87-1.71.04-.99-.72-1.83-1.72-1.88-.99-.04-1.83.72-1.88 1.72"/><path class="k" d="M180.82 16.88c-.04.79.58 1.47 1.37 1.5.79.04 1.47-.58 1.5-1.37.03-.79-.58-1.47-1.37-1.5a1.44 1.44 0 0 0-1.5 1.37M174.15 10.77c-.04.79.58 1.47 1.37 1.5.79.03 1.46-.58 1.5-1.37.03-.79-.58-1.47-1.37-1.5-.79-.03-1.47.58-1.5 1.37M171.51 12.52c-.04.79.58 1.46 1.37 1.5.79.04 1.46-.58 1.5-1.37.03-.79-.58-1.47-1.37-1.5-.79-.03-1.47.58-1.5 1.37M171.99 15.85c-.04.79.58 1.47 1.37 1.5.79.04 1.47-.58 1.5-1.37.03-.79-.58-1.46-1.38-1.5-.79-.03-1.46.58-1.5 1.37M150.41 15.02c-.04.79.58 1.47 1.37 1.5.79.04 1.47-.58 1.5-1.37.03-.79-.58-1.47-1.37-1.5a1.44 1.44 0 0 0-1.5 1.37M155.61 16.49c-.02.39.28.72.67.73.39.02.72-.28.73-.67a.69.69 0 0 0-.67-.73.696.696 0 0 0-.73.67M141.15 28.66c-.02.39.28.72.67.73.39.02.72-.28.73-.67a.69.69 0 0 0-.67-.73.696.696 0 0 0-.73.67M140.77 25.7c-.02.39.28.72.67.73.39.02.72-.28.73-.67a.69.69 0 0 0-.67-.73.69.69 0 0 0-.73.67M156.63 15.08c-.02.39.28.72.67.73.39.02.72-.28.73-.67a.69.69 0 0 0-.67-.73.696.696 0 0 0-.73.67M160.22 16.5c-.02.39.28.72.67.73.39.02.72-.28.73-.67a.69.69 0 0 0-.67-.73.705.705 0 0 0-.74.67M158.52 19.46c-.02.39.28.72.67.73.39.02.72-.28.73-.67a.69.69 0 0 0-.67-.73.69.69 0 0 0-.73.67M155.34 21.11c-.02.39.28.72.67.73.39.02.72-.28.73-.67a.69.69 0 0 0-.67-.73.696.696 0 0 0-.73.67M156.3 22.8c-.02.39.28.72.67.73.39.02.72-.28.73-.67a.69.69 0 0 0-.67-.73.69.69 0 0 0-.73.67M158.92 25.96c-.02.39.28.72.67.73.39.02.72-.28.73-.67a.69.69 0 0 0-.67-.73.69.69 0 0 0-.73.67M153.61 14.14c-.04.79.58 1.47 1.37 1.5.79.04 1.47-.58 1.5-1.37.03-.79-.58-1.47-1.37-1.5-.79-.04-1.47.58-1.5 1.37M149.49 26.49c-.04.79.58 1.46 1.37 1.5.79.03 1.46-.58 1.5-1.37.03-.79-.58-1.47-1.37-1.5-.79-.03-1.47.58-1.5 1.37M156.88 33.71c-.04.79.58 1.46 1.37 1.5.79.04 1.46-.58 1.5-1.37.03-.79-.58-1.46-1.37-1.5a1.44 1.44 0 0 0-1.5 1.37M159.78 28.25c-.04.79.58 1.46 1.37 1.5.79.03 1.47-.58 1.5-1.37a1.442 1.442 0 0 0-2.88-.13M166.91 25.54c-.02.47.35.87.82.89.47.02.87-.34.89-.82a.859.859 0 0 0-.82-.89.867.867 0 0 0-.9.82M167.99 27.21c-.02.47.35.87.82.89.47.02.87-.34.89-.82a.852.852 0 0 0-.82-.89.852.852 0 0 0-.89.82"/><path class="g" d="M167.48 31.35a.872.872 0 1 0 1.742.079.872.872 0 0 0-1.742-.079M171.29 29.3c-.03.77.56 1.41 1.32 1.45.77.03 1.41-.56 1.45-1.32a1.4 1.4 0 0 0-1.32-1.45 1.4 1.4 0 0 0-1.45 1.32M163.08 27.5a1.4 1.4 0 0 0 1.32 1.45c.76.03 1.41-.56 1.44-1.32.03-.77-.56-1.41-1.32-1.45-.77-.03-1.41.56-1.45 1.32M160.44 25.25c-.03.77.56 1.41 1.32 1.45.77.03 1.41-.56 1.45-1.32a1.4 1.4 0 0 0-1.33-1.45c-.77-.03-1.41.56-1.45 1.32M151.39 31.31a1.4 1.4 0 0 0 1.32 1.45 1.4 1.4 0 0 0 1.45-1.32 1.4 1.4 0 0 0-1.32-1.45c-.77-.03-1.41.56-1.45 1.32M151.71 39.33c-.03.77.56 1.41 1.32 1.45.77.03 1.41-.56 1.45-1.32.03-.77-.56-1.41-1.33-1.45a1.4 1.4 0 0 0-1.45 1.32M154.11 46.44c-.03.77.56 1.41 1.32 1.45.77.03 1.41-.56 1.45-1.32a1.4 1.4 0 0 0-1.33-1.45c-.77-.03-1.41.56-1.45 1.32M168.59 1.92c-.74.2-1.17.97-.97 1.71.2.74.97 1.17 1.71.97.74-.21 1.17-.97.97-1.71-.21-.74-.97-1.17-1.71-.97M150.13 20.35a.872.872 0 1 0 1.742.079.872.872 0 0 0-1.742-.079M157.07 21.02a.872.872 0 1 0 1.742.079.872.872 0 0 0-1.742-.079M139.04 27a.872.872 0 1 0 1.742.079.872.872 0 0 0-1.742-.079M151.08 22.13a.872.872 0 1 0 1.742.079.872.872 0 0 0-1.742-.079M150.84 17.83a.872.872 0 1 0 1.742.079.872.872 0 0 0-1.742-.079M147.27 20.27a.872.872 0 1 0 1.742.079.872.872 0 0 0-1.742-.079M143 22.85a.872.872 0 1 0 1.742.079.872.872 0 0 0-1.742-.079"/><path class="g" d="M141.87 24.5a.872.872 0 1 0 1.742.079.872.872 0 0 0-1.742-.079M174.58 13.77a.872.872 0 1 0 1.742.079.872.872 0 0 0-1.742-.079M181.32 9.65a.872.872 0 1 0 1.742.079.872.872 0 0 0-1.742-.079M173.99 21.85a.872.872 0 1 0 1.742.079.872.872 0 0 0-1.742-.079M172.47 19.9a.872.872 0 1 0 1.742.079.872.872 0 0 0-1.742-.079M178.55 15.96a.872.872 0 1 0 1.742.079.872.872 0 0 0-1.742-.079M180.32 14.34a.872.872 0 1 0 1.742.079.872.872 0 0 0-1.742-.079M178.73 10.1a.872.872 0 1 0 1.742.079.872.872 0 0 0-1.742-.079M180.36 11.58a.872.872 0 1 0 1.742.079.872.872 0 0 0-1.742-.079M164.98 16.9a.872.872 0 1 0 1.742.079.872.872 0 0 0-1.742-.079M183.96 18.08a.872.872 0 0 0 1.74.08.873.873 0 0 0-.84-.91.872.872 0 0 0-.91.83M165.47 19.8a.872.872 0 1 0 1.742.079.872.872 0 0 0-1.742-.079M166.37 23.5a.872.872 0 1 0 1.742.079.872.872 0 0 0-1.742-.079M163.97 21.52a.872.872 0 0 0 1.74.08.873.873 0 0 0-.84-.91.872.872 0 0 0-.91.83M147.25 42.96a.872.872 0 1 0 1.742.079.872.872 0 0 0-1.742-.079M154.8 43.81a.872.872 0 1 0 1.742.079.872.872 0 0 0-1.742-.079M147.37 28.15a.872.872 0 0 0 1.74.08.873.873 0 0 0-.84-.91.872.872 0 0 0-.91.83M181.11 28.54a.872.872 0 1 0 1.742.079.872.872 0 0 0-1.742-.079M180.38 30.75a.872.872 0 0 0 1.74.08.873.873 0 0 0-.84-.91.872.872 0 0 0-.91.83M163.5 6.91c-.48.08-.8.53-.72 1.01.08.47.53.8 1.01.71.48-.08.8-.53.71-1.01a.867.867 0 0 0-1.01-.71M151.93 4.07a.86.86 0 0 0-.71 1.01c.08.48.53.8 1.01.71.48-.08.8-.53.71-1.01a.867.867 0 0 0-1.01-.71M164.75 5.16c-.48.08-.8.53-.72 1.01.08.48.53.8 1.01.71.48-.08.8-.53.71-1.01a.882.882 0 0 0-1.01-.72M169.46 7.6c-.47.08-.8.53-.71 1.01.08.48.53.8 1.01.71.47-.08.8-.53.71-1.01a.882.882 0 0 0-1.01-.72M161.25 1.09c-.47.08-.8.53-.71 1.01.08.48.53.8 1.01.72.47-.08.8-.53.71-1.01a.882.882 0 0 0-1.01-.72"/><path class="k" d="M174.25 28.25c-.04.79.58 1.46 1.37 1.5.79.03 1.47-.58 1.5-1.37.03-.79-.58-1.47-1.37-1.5-.79-.03-1.46.58-1.5 1.37M177.71 27.35c-.04.79.58 1.47 1.38 1.5.79.03 1.47-.58 1.5-1.37.03-.79-.58-1.47-1.37-1.5-.8-.04-1.47.58-1.5 1.37M176.4 33.21c-.02.45.33.84.78.86.45.02.84-.33.86-.78a.825.825 0 0 0-.78-.86.825.825 0 0 0-.86.78M159.05 45.12a.826.826 0 1 0 .87-.79.825.825 0 0 0-.86.78M153.31 48.71c-.02.45.33.84.78.86.45.02.84-.33.86-.78a.826.826 0 0 0-1.65-.07M149.13 47.45c-.02.45.33.84.78.86a.826.826 0 0 0 .08-1.65.825.825 0 0 0-.86.78M155.3 49.12c-.02.45.33.84.78.86.45.02.84-.33.86-.78a.825.825 0 0 0-.78-.86.826.826 0 0 0-.86.79M161.43 44.81a.826.826 0 0 0 1.65.08.825.825 0 0 0-.78-.86.826.826 0 0 0-.86.79M159.96 40.84c-.02.45.33.84.78.86.45.02.84-.33.86-.78a.825.825 0 0 0-.78-.86.825.825 0 0 0-.86.78M159.95 43.44c-.02.45.33.84.79.86.45.02.83-.33.85-.78a.825.825 0 0 0-.78-.86.826.826 0 0 0-.86.79M169.18 29.94a.826.826 0 1 0 .87-.79.825.825 0 0 0-.86.78"/><path class="g" d="M166.55 34.1a.872.872 0 1 0 1.742.079.872.872 0 0 0-1.742-.079"/><path class="k" d="M169.37 32.19c-.02.46.33.84.79.86.45.02.84-.33.86-.78a.825.825 0 0 0-.78-.86.825.825 0 0 0-.86.78M166.57 21.59c-.02.45.33.84.79.86.45.02.84-.33.85-.78a.825.825 0 0 0-.78-.86.825.825 0 0 0-.86.78M163.72 18.59a.826.826 0 0 0 1.65.08.825.825 0 0 0-.78-.86.819.819 0 0 0-.86.78M171.31 23.07a.826.826 0 0 0 1.65.08.825.825 0 0 0-.78-.86.826.826 0 0 0-.86.79M163.28 16.03c-.02.45.33.84.78.86.45.02.83-.33.86-.78a.825.825 0 0 0-.78-.86.826.826 0 0 0-.86.79M183.22 14.43c-.02.45.33.84.78.86a.826.826 0 0 0 .08-1.65.826.826 0 0 0-.86.79M151.39 6.18c-.79.13-1.31.88-1.18 1.66.13.78.88 1.31 1.66 1.18a1.44 1.44 0 0 0-.48-2.84M167.28 5.22a1.44 1.44 0 1 0 .481 2.839 1.44 1.44 0 0 0-.481-2.839"/><path class="m" d="M167.23 18.28c-.04.99.72 1.83 1.71 1.88.99.04 1.83-.72 1.88-1.72.04-.99-.73-1.83-1.72-1.88-.99-.04-1.83.72-1.87 1.72M160.11 20.36c-.04.99.72 1.83 1.72 1.88.99.04 1.83-.72 1.88-1.72.04-.99-.73-1.83-1.72-1.88-.99-.04-1.83.72-1.87 1.72M146.87 17.22c-.04.99.72 1.83 1.72 1.88.99.04 1.83-.72 1.88-1.72.04-.99-.72-1.83-1.72-1.88-.99-.04-1.83.72-1.87 1.72M157.16 17.17c-.03.71.52 1.31 1.22 1.34a1.286 1.286 0 1 0-1.23-1.34M177.67 18.33c-.03.71.51 1.31 1.22 1.34.71.03 1.31-.52 1.34-1.22a1.286 1.286 0 1 0-2.57-.11M182.18 12.24c-.02.5.36.92.86.94.5.02.92-.36.94-.86.02-.5-.37-.92-.86-.94-.5-.02-.92.36-.94.86M176.88 8.78c-.02.5.36.92.86.94.5.02.92-.36.94-.86.02-.5-.36-.92-.86-.94-.5-.02-.92.36-.94.86M179.75 8.04c-.02.5.36.92.86.94.5.02.92-.36.94-.86.02-.5-.36-.92-.86-.94-.5-.02-.92.36-.94.86M178.83 23.33c-.02.5.36.92.86.94.5.02.92-.36.94-.86.02-.5-.36-.92-.86-.94-.5-.02-.92.36-.94.86M146.81 25.45a1.286 1.286 0 1 0 2.57.11 1.286 1.286 0 0 0-2.57-.11M144.8 21.9c-.03.71.52 1.31 1.22 1.34a1.286 1.286 0 1 0-1.23-1.34M144.15 18.97a1.286 1.286 0 1 0 2.57.11c.03-.71-.52-1.31-1.22-1.34-.71-.03-1.31.52-1.34 1.23M152.5 20.37c-.03.71.52 1.31 1.22 1.34a1.286 1.286 0 1 0-1.23-1.34M162.34 30.51a1.286 1.286 0 1 0 2.57.11 1.286 1.286 0 0 0-2.57-.11M158.11 22.9c-.03.71.52 1.31 1.22 1.34a1.286 1.286 0 1 0-1.23-1.34M163.24 45.71a1.286 1.286 0 1 0 2.57.11 1.286 1.286 0 0 0-2.57-.11M154.3 5.53c-.7.12-1.17.78-1.05 1.48.12.7.78 1.17 1.48 1.05.7-.12 1.17-.78 1.05-1.48-.12-.7-.78-1.17-1.48-1.05M152.36 9.56c-.7.12-1.17.78-1.05 1.48.12.7.78 1.17 1.48 1.05.7-.12 1.17-.78 1.05-1.48-.12-.7-.78-1.17-1.48-1.05M178.57 33.37a1.286 1.286 0 1 0 2.57.11c.03-.71-.52-1.31-1.22-1.34-.71-.03-1.31.52-1.34 1.23M165.29 13.69c-.04.99.72 1.83 1.71 1.88.99.04 1.83-.73 1.88-1.72.04-.99-.73-1.83-1.72-1.88-.99-.04-1.83.72-1.87 1.72M161.48 11.13c-.04.99.73 1.83 1.72 1.88.99.04 1.83-.72 1.87-1.72.04-.99-.72-1.83-1.72-1.88-.99-.04-1.83.72-1.88 1.72"/><path class="g" d="M170.58 39.44c-.03.77.56 1.41 1.33 1.45a1.4 1.4 0 0 0 1.45-1.32 1.4 1.4 0 0 0-1.32-1.45c-.77-.03-1.41.56-1.45 1.32M171.68 44.31a1.4 1.4 0 0 0 1.33 1.45 1.4 1.4 0 0 0 1.45-1.32 1.4 1.4 0 0 0-1.32-1.45c-.77-.03-1.41.56-1.45 1.33"/><path class="k" d="M171.17 18.05c-.02.45.33.84.78.86.45.02.84-.33.86-.78a.826.826 0 0 0-1.65-.08M168.67 39.42c-.02.45.33.84.78.86.45.02.84-.33.86-.78a.826.826 0 0 0-1.65-.08"/><path class="m" d="M172.85 41.31c-.03.71.52 1.31 1.22 1.34a1.286 1.286 0 1 0-1.23-1.34M173.66 31.8a1.286 1.286 0 1 0 2.57.11 1.286 1.286 0 0 0-2.57-.11M174.72 44.28a.816.816 0 1 0 1.63.07.816.816 0 0 0-1.63-.07M175.81 41.79a.816.816 0 1 0 1.63.07.816.816 0 0 0-1.63-.07M160.97 35.55a.816.816 0 1 0 1.63.07.816.816 0 0 0-1.63-.07M146.42 44.81a.816.816 0 1 0 1.63.07.816.816 0 0 0-1.63-.07M146.29 47.48a.816.816 0 1 0 1.63.07.816.816 0 0 0-1.63-.07M150.7 37.17a.816.816 0 1 0 1.63.07.816.816 0 0 0-1.63-.07M157.05 45.28a.816.816 0 1 0 1.63.07.816.816 0 0 0-1.63-.07M145.46 41.57a.816.816 0 1 0 1.63.07.816.816 0 0 0-1.63-.07M150.5 24a.816.816 0 1 0 1.63.07.816.816 0 0 0-1.63-.07M161.58 17.67a.816.816 0 1 0 1.63.07.816.816 0 0 0-1.63-.07M163.17 14.14a.816.816 0 1 0 1.63.07.816.816 0 0 0-1.63-.07M170.77 20.6a.816.816 0 1 0 1.63.07.816.816 0 0 0-1.63-.07M172.05 6.5a.816.816 0 1 0 1.63.07.816.816 0 0 0-1.63-.07M153.18 4.4a.816.816 0 1 0 1.63.07.816.816 0 0 0-1.63-.07M149.57 8.89c-.44.08-.74.5-.67.94.07.44.49.74.94.67.44-.08.74-.5.67-.94a.818.818 0 0 0-.94-.67M145.78 12.03c-.44.08-.74.5-.67.94.07.44.49.74.94.67.44-.08.74-.5.67-.94a.818.818 0 0 0-.94-.67M166.28 3.55c-.44.07-.74.5-.67.94.08.44.5.74.94.67.44-.08.74-.5.67-.94a.823.823 0 0 0-.94-.67M165.59 42.29a.816.816 0 1 0 1.63.07.816.816 0 0 0-1.63-.07M173.36 37.63a.816.816 0 1 0 1.63.07.816.816 0 0 0-1.63-.07M168.43 34.9c-.02.45.32.83.77.85a.816.816 0 1 0-.78-.85M170.44 46.29a.816.816 0 1 0 1.63.07.816.816 0 0 0-1.63-.07M170.35 34a.816.816 0 1 0 1.63.07.816.816 0 0 0-1.63-.07"/><path class="i" d="M161.6 42.15c-.04.99.73 1.83 1.72 1.88.99.04 1.83-.72 1.88-1.72.04-.99-.72-1.83-1.72-1.88-.99-.04-1.83.72-1.88 1.72"/><path class="k" d="M168.36 46.42c-.02.45.33.84.78.86a.826.826 0 0 0 .08-1.65.819.819 0 0 0-.86.78M166.91 40.85a.826.826 0 0 0 1.65.08.825.825 0 0 0-.78-.86.825.825 0 0 0-.86.78M165.78 44.42c-.02.45.33.84.78.86a.826.826 0 0 0 .08-1.65.825.825 0 0 0-.86.78M144.55 43.48a.826.826 0 1 0 .87-.79.825.825 0 0 0-.86.78M144.61 45.95a.826.826 0 0 0 1.65.08.825.825 0 0 0-.78-.86.825.825 0 0 0-.86.78M147.66 46.15c-.02.45.33.84.78.86a.826.826 0 0 0 .08-1.65.826.826 0 0 0-.86.79M166.44 46.28c-.02.45.33.84.78.86.45.02.84-.33.86-.78a.825.825 0 0 0-.78-.86.825.825 0 0 0-.86.78"/><path class="i" d="M168.29 42.73c-.04.99.73 1.83 1.72 1.88.99.04 1.83-.72 1.87-1.72.04-.99-.73-1.83-1.72-1.88-.99-.04-1.83.72-1.88 1.72M145.05 15.28c-.03.65.48 1.2 1.13 1.23.65.03 1.2-.48 1.23-1.13.03-.65-.48-1.2-1.13-1.23-.65-.03-1.2.48-1.23 1.13M144 24.51c-.04.65.46 1.21 1.12 1.24.65.03 1.21-.46 1.24-1.12a1.17 1.17 0 0 0-1.12-1.24c-.65-.03-1.21.47-1.24 1.12M152.75 36.49c-.03.65.48 1.2 1.13 1.23.65.03 1.2-.48 1.23-1.13.03-.65-.47-1.2-1.13-1.23-.65-.03-1.2.48-1.23 1.13M158.46 36.53c-.03.65.47 1.2 1.13 1.23.65.03 1.2-.48 1.23-1.13.03-.65-.47-1.2-1.13-1.23-.65-.03-1.2.48-1.23 1.13M172.15 4.06c-.03.65.47 1.2 1.13 1.23.65.03 1.2-.47 1.23-1.13.03-.65-.48-1.2-1.13-1.23-.65-.03-1.2.48-1.23 1.13"/><path class="m" d="M142.27 32.29c-.03.71.52 1.31 1.22 1.34a1.286 1.286 0 1 0-1.23-1.34"/><path class="i" d="M143.39 41.88a.816.816 0 1 0 .85-.78.825.825 0 0 0-.86.78M171.81 58.77c-.02.45.33.83.78.85.45.02.83-.33.86-.78a.816.816 0 0 0-1.63-.07M166.45 60.71a.816.816 0 1 0 .85-.78.825.825 0 0 0-.86.78M159.57 46.79a.816.816 0 1 0 .85-.78.825.825 0 0 0-.86.78M159.24 54.28a.816.816 0 1 0 .85-.78.825.825 0 0 0-.86.78M162.42 62.17c-.02.45.33.84.78.86a.816.816 0 0 0 .07-1.63.825.825 0 0 0-.86.78M139.74 31.05c-.03.65.48 1.2 1.13 1.23.65.03 1.2-.48 1.23-1.13.03-.65-.48-1.2-1.13-1.23-.65-.03-1.2.48-1.23 1.13M142.62 29.63c-.03.65.48 1.2 1.13 1.23.65.03 1.2-.48 1.23-1.13.03-.65-.47-1.2-1.13-1.23-.65-.03-1.2.47-1.23 1.13M156.26 24.83a.94.94 0 1 0 1.88.08.94.94 0 1 0-1.88-.08M148.17 22.63c-.03.65.48 1.2 1.13 1.23.65.03 1.2-.48 1.23-1.13.03-.65-.48-1.21-1.13-1.23-.65-.03-1.2.48-1.23 1.13"/><path class="k" d="M150.03 34.39c-.04.79.58 1.47 1.37 1.5.79.03 1.46-.58 1.5-1.37.03-.79-.58-1.47-1.37-1.5-.79-.03-1.47.58-1.5 1.37"/><path class="g" d="M143.69 27.21c-.03.77.56 1.41 1.32 1.45a1.4 1.4 0 0 0 1.45-1.32 1.4 1.4 0 0 0-1.32-1.45c-.77-.03-1.41.56-1.45 1.32"/><path class="m" d="M147.36 33.35c-.03.71.52 1.31 1.23 1.34.71.03 1.31-.52 1.34-1.22.03-.71-.52-1.31-1.22-1.34-.71-.03-1.31.52-1.34 1.23M155.55 36.5a1.286 1.286 0 1 0 2.57.11 1.28 1.28 0 0 0-1.23-1.34c-.71-.03-1.31.52-1.34 1.23M154.29 41.13a1.286 1.286 0 1 0 2.57.11 1.286 1.286 0 0 0-2.57-.11M145.54 30.18a1.286 1.286 0 1 0 2.57.11 1.286 1.286 0 0 0-2.57-.11"/><path class="i" d="M148.72 30.53c-.03.65.47 1.2 1.13 1.23.65.03 1.2-.48 1.23-1.13.03-.65-.48-1.2-1.13-1.23-.65-.03-1.2.48-1.23 1.13M142.7 37.46c-.03.65.47 1.2 1.13 1.23.65.03 1.2-.48 1.23-1.13.03-.65-.48-1.2-1.13-1.23-.65-.03-1.2.48-1.23 1.13M153.04 17.19c-.03.65.48 1.2 1.13 1.23.65.03 1.2-.48 1.23-1.13.03-.65-.48-1.2-1.13-1.23-.65-.03-1.2.48-1.23 1.13M175.61 16.08c-.03.65.47 1.2 1.13 1.23.65.03 1.21-.48 1.23-1.13.03-.65-.48-1.2-1.13-1.23-.65-.03-1.2.48-1.23 1.13M155.32 18.93c-.03.65.48 1.2 1.13 1.23.65.03 1.2-.48 1.23-1.13.03-.65-.48-1.2-1.13-1.23-.65-.03-1.2.48-1.23 1.13M181.3 20.04c-.03.65.48 1.2 1.13 1.23.65.03 1.2-.48 1.23-1.13.03-.65-.48-1.2-1.13-1.23-.65-.03-1.2.48-1.23 1.13"/><path class="m" d="M152.41 24.21c-.04.99.72 1.83 1.71 1.88.99.04 1.83-.72 1.88-1.72.04-.99-.72-1.83-1.72-1.88-.99-.04-1.83.73-1.87 1.72"/><path class="k" d="M174.66 19.21c-.04.79.58 1.47 1.37 1.5.79.03 1.47-.58 1.5-1.37.03-.79-.58-1.47-1.37-1.5a1.44 1.44 0 0 0-1.5 1.37"/><path class="g" d="M176.6 22.08a.872.872 0 0 0 1.74.08.873.873 0 0 0-.84-.91.872.872 0 0 0-.91.83M178.94 21.12a.872.872 0 1 0 1.742.079.872.872 0 0 0-1.742-.079"/><path class="m" d="M157.17 13.05c-.03.71.52 1.31 1.23 1.34.71.03 1.31-.52 1.34-1.22a1.286 1.286 0 1 0-2.57-.11"/><path class="i" d="M160.33 14.35c-.03.65.48 1.2 1.13 1.23.65.03 1.2-.48 1.23-1.13.03-.65-.48-1.2-1.13-1.23-.65-.03-1.2.48-1.23 1.13M160.78 7.27c-.64.11-1.08.72-.97 1.36.11.64.72 1.08 1.36.97.64-.11 1.08-.72.97-1.36-.11-.64-.72-1.07-1.36-.97M159.5 9.5c-.65.11-1.08.72-.97 1.36.11.64.72 1.08 1.36.97.64-.11 1.08-.72.97-1.36-.11-.64-.72-1.07-1.36-.97M150.18 11.35c-.64.11-1.08.72-.97 1.36.11.64.72 1.08 1.36.97.64-.11 1.08-.72.97-1.36-.11-.64-.72-1.08-1.36-.97M177.46 6.32c-.03.65.48 1.2 1.13 1.23.65.03 1.21-.48 1.23-1.13.03-.65-.48-1.2-1.13-1.23-.65-.03-1.2.48-1.23 1.13"/><path class="m" d="M171.54 32.15a.816.816 0 1 0 1.63.07.816.816 0 0 0-1.63-.07"/><path class="i" d="M173.45 34.77c-.03.65.48 1.2 1.13 1.23.65.03 1.2-.48 1.23-1.13.03-.65-.48-1.2-1.13-1.23-.65-.03-1.2.48-1.23 1.13M168.45 22.09c-.03.65.48 1.2 1.13 1.23.65.03 1.2-.48 1.23-1.13.03-.65-.48-1.2-1.13-1.23-.65-.03-1.2.48-1.23 1.13M163.38 23.99c-.03.65.48 1.2 1.13 1.23.65.03 1.21-.48 1.23-1.13.03-.65-.48-1.2-1.13-1.23-.65-.03-1.2.48-1.23 1.13M166.26 29.08c-.03.65.48 1.2 1.13 1.23.65.03 1.2-.48 1.23-1.13.03-.65-.47-1.2-1.13-1.23-.65-.03-1.2.48-1.23 1.13"/><path class="g" d="M170.03 27.36a.872.872 0 1 0 1.742.079.872.872 0 0 0-1.742-.079M173.46 25.2a1.4 1.4 0 0 0 1.32 1.45c.77.03 1.41-.56 1.45-1.32.03-.77-.56-1.41-1.32-1.45-.77-.03-1.41.56-1.45 1.32"/><path class="k" d="M171.73 25.95a.826.826 0 1 0 .87-.79.825.825 0 0 0-.86.78"/><path class="i" d="M168.81 25.09c-.03.65.48 1.2 1.13 1.23.65.03 1.2-.48 1.23-1.13.03-.65-.48-1.2-1.13-1.23-.65-.03-1.2.48-1.23 1.13M166.12.82c-.64.11-1.08.72-.97 1.36.11.64.72 1.08 1.36.97.64-.11 1.08-.72.97-1.36-.11-.64-.72-1.07-1.36-.97M170.21 4.61c-.63.17-1 .82-.82 1.45.17.63.82 1 1.45.82.63-.17 1-.83.82-1.45-.17-.63-.83-1-1.46-.82"/><path class="g" d="M163.32 2.31c-.76.13-1.26.84-1.14 1.6.13.76.84 1.26 1.6 1.14.76-.13 1.27-.84 1.14-1.6-.13-.76-.84-1.26-1.6-1.14M156.23 2.37c-.76.12-1.26.84-1.14 1.6.13.75.85 1.26 1.6 1.14a1.4 1.4 0 0 0 1.14-1.6c-.13-.76-.85-1.26-1.6-1.13M155.14 8.37c-.76.13-1.26.84-1.14 1.6.13.76.85 1.26 1.6 1.14.76-.13 1.27-.84 1.14-1.6-.13-.76-.84-1.27-1.6-1.14"/><path class="k" d="M158.5 4.11c-.45.07-.75.5-.67.95.08.45.5.75.95.67.45-.08.75-.5.67-.95a.818.818 0 0 0-.95-.67M159.44 5.96c-.45.08-.75.5-.67.95.08.45.5.75.95.67.45-.08.75-.5.68-.95a.818.818 0 0 0-.95-.67M148.98 6.92c-.45.07-.75.5-.67.95.08.45.5.75.95.67.45-.08.75-.5.67-.95a.818.818 0 0 0-.95-.67M160.11 2.91c-.45.08-.75.5-.67.95.07.45.5.75.95.67.45-.08.75-.5.67-.95a.818.818 0 0 0-.95-.67"/><path class="m" d="M157.9 2.53c-.07.44.24.86.69.92.44.06.86-.24.92-.69a.805.805 0 0 0-.69-.92.805.805 0 0 0-.92.69M147.87 12.54c-.44.07-.74.5-.67.94.08.44.49.74.94.67a.818.818 0 0 0-.28-1.61M156.1 11.34c-.44.07-.74.49-.67.94.08.44.49.74.94.67.44-.08.74-.5.67-.94a.818.818 0 0 0-.94-.67M142.67 26.37c-.44.07-.74.49-.67.94.08.44.49.74.94.67.44-.08.74-.5.67-.94a.818.818 0 0 0-.94-.67M157.84 8.21c-.44.07-.74.49-.67.94a.818.818 0 0 0 1.61-.28.818.818 0 0 0-.94-.67M139.11 28.17c-.44.07-.74.49-.67.94.07.44.49.74.94.66.44-.07.74-.49.67-.94a.823.823 0 0 0-.94-.67"/><path class="i" d="M161.64 4.69c-.65.11-1.08.72-.97 1.36.11.64.72 1.08 1.36.97.64-.11 1.08-.72.97-1.36-.11-.64-.72-1.08-1.36-.97M157.09 5.67c-.64.11-1.08.72-.97 1.36.11.64.72 1.08 1.36.97.64-.11 1.08-.72.97-1.36-.11-.64-.72-1.08-1.36-.97"/><path class="m" d="M167.2 9.21c-.7.12-1.17.78-1.05 1.48.12.7.78 1.17 1.48 1.05.7-.12 1.17-.78 1.05-1.48-.12-.7-.78-1.17-1.48-1.05"/><path class="g" d="M174.87 6.52c-.76.13-1.27.84-1.14 1.6.13.76.84 1.27 1.6 1.14.76-.13 1.26-.84 1.14-1.6-.13-.76-.85-1.26-1.6-1.13"/><path class="k" d="M171.51 7.32c-.45.07-.75.5-.67.94.07.45.5.75.95.68.45-.08.75-.5.67-.95a.818.818 0 0 0-.95-.67M171.33 2.23c-.45.07-.75.5-.67.95.07.45.5.75.94.67.45-.08.75-.5.68-.95a.818.818 0 0 0-.95-.67M172.79 8.69c-.45.08-.75.5-.67.95.08.45.5.75.95.67.45-.08.75-.5.67-.95a.813.813 0 0 0-.95-.67M165.37 7.64c-.45.08-.75.5-.67.95.08.45.5.75.95.67.45-.08.75-.5.67-.95a.818.818 0 0 0-.95-.67"/><path class="i" d="M170.34 9.87c-.64.11-1.08.72-.97 1.36.11.64.72 1.08 1.36.97.64-.11 1.08-.72.97-1.36-.11-.64-.72-1.08-1.36-.97M147.33 9.87c-.64.11-1.08.72-.97 1.36.11.64.72 1.08 1.36.97.64-.11 1.08-.72.97-1.36-.11-.64-.72-1.08-1.36-.97M165.03 32.12c-.03.65.47 1.2 1.13 1.23.65.03 1.2-.48 1.23-1.13.03-.65-.48-1.2-1.13-1.23-.65-.03-1.2.48-1.23 1.13"/><path class="g" d="M166.79 38.66a.872.872 0 1 0 1.742.079.872.872 0 0 0-1.742-.079M170.23 36.5a1.4 1.4 0 0 0 1.32 1.45c.77.03 1.41-.56 1.45-1.32.03-.77-.56-1.41-1.32-1.45a1.4 1.4 0 0 0-1.45 1.32M162.9 34.94a1.4 1.4 0 0 0 1.32 1.45c.77.03 1.41-.56 1.45-1.32.03-.77-.56-1.41-1.32-1.45a1.4 1.4 0 0 0-1.45 1.33"/><path class="k" d="M168.5 37.24a.826.826 0 1 0 0-.01"/><path class="m" d="M161.65 37.82a1.286 1.286 0 1 0 2.57.11 1.286 1.286 0 0 0-2.57-.11M152.5 28.29a1.286 1.286 0 1 0 2.57.11 1.286 1.286 0 0 0-2.57-.11"/><path class="g" d="M154.72 30.44c-.03.77.56 1.41 1.32 1.45a1.4 1.4 0 0 0 1.45-1.32 1.4 1.4 0 0 0-1.32-1.45c-.77-.03-1.41.56-1.45 1.32"/><path class="k" d="M153.37 33.53c-.04.79.58 1.47 1.37 1.5.8.04 1.47-.58 1.5-1.37a1.442 1.442 0 0 0-2.88-.13M156.99 42.7c-.04.79.58 1.47 1.37 1.5.8.04 1.47-.58 1.5-1.37.03-.79-.58-1.47-1.38-1.5a1.44 1.44 0 0 0-1.5 1.37M157.14 39.32c-.04.79.58 1.47 1.37 1.5.8.04 1.47-.58 1.5-1.37.03-.79-.58-1.47-1.37-1.5-.79-.03-1.46.58-1.5 1.37"/><path class="m" d="M155.83 27.42a1.286 1.286 0 1 0 2.57.11 1.286 1.286 0 0 0-2.57-.11M158 30.55c-.03.71.52 1.31 1.23 1.34.71.03 1.31-.52 1.34-1.22a1.286 1.286 0 1 0-2.57-.11"/><path class="k" d="M149.44 41.72c-.04.79.58 1.46 1.37 1.5.79.03 1.46-.58 1.5-1.37.03-.8-.58-1.47-1.37-1.5-.79-.04-1.47.58-1.5 1.37"/><path class="g" d="M150.97 46.48c-.03.77.56 1.41 1.32 1.45.77.03 1.41-.56 1.45-1.32a1.4 1.4 0 0 0-1.32-1.45 1.4 1.4 0 0 0-1.45 1.32M176.52 30.44a1.4 1.4 0 0 0 1.32 1.45c.77.03 1.41-.56 1.45-1.32.03-.77-.56-1.41-1.32-1.45-.77-.03-1.41.56-1.45 1.32"/><path class="k" d="M179.88 25.43a.826.826 0 1 0 .87-.79.825.825 0 0 0-.86.78M183.5 21.39c-.02.45.33.84.78.86a.826.826 0 0 0 .08-1.65.825.825 0 0 0-.86.78"/><path class="m" d="M181.87 26.49a.816.816 0 1 0 1.63.07.816.816 0 0 0-1.63-.07"/><path class="g" d="M181.69 23.46c-.03.77.56 1.41 1.32 1.45.77.03 1.41-.56 1.45-1.32a1.4 1.4 0 0 0-1.32-1.45c-.77-.03-1.41.56-1.45 1.32M144.25 39.78a.872.872 0 0 0 1.74.08.873.873 0 0 0-.84-.91.872.872 0 0 0-.91.83"/><path class="m" d="M146.98 40.23a1.286 1.286 0 1 0 2.57.11c.03-.71-.52-1.31-1.22-1.34-.71-.03-1.31.52-1.34 1.22"/><path class="g" d="M145.77 38.4a.872.872 0 1 0 1.742.079.872.872 0 0 0-1.742-.079M149.68 39.26a.872.872 0 1 0 1.742.079.872.872 0 0 0-1.742-.079M145.12 32.73a.872.872 0 1 0 1.742.079.872.872 0 0 0-1.742-.079M154.69 38.68a.87.87 0 0 0 1.74.02c0-.48-.38-.88-.86-.89a.87.87 0 0 0-.88.86"/><path class="k" d="M147.59 36.92c-.04.79.58 1.47 1.37 1.5.8.04 1.47-.58 1.5-1.37.03-.79-.58-1.47-1.37-1.5-.79-.03-1.46.58-1.5 1.37"/><path class="g" d="M142.73 34.94a.872.872 0 1 0 1.742.079.872.872 0 0 0-1.742-.079"/><path class="m" d="M144.91 35.87c-.03.71.52 1.31 1.22 1.34a1.286 1.286 0 1 0 .11-2.57c-.71-.03-1.31.52-1.34 1.22"/><path class="i" d="M148.89 44.45c-.03.65.48 1.2 1.13 1.23.65.03 1.21-.47 1.23-1.13.03-.65-.48-1.2-1.13-1.23-.65-.03-1.2.48-1.23 1.13M176.54 24.63c-.03.65.48 1.2 1.13 1.23.65.03 1.21-.48 1.23-1.13.03-.65-.48-1.2-1.13-1.23-.65-.03-1.2.48-1.23 1.13"/><path class="g" d="M176.79 35.94c-.03.77.56 1.41 1.32 1.45.77.03 1.41-.56 1.45-1.33a1.4 1.4 0 0 0-1.32-1.45 1.4 1.4 0 0 0-1.45 1.32"/><path class="k" d="M175.01 38.72c-.04.79.58 1.46 1.37 1.5.79.04 1.46-.58 1.5-1.37.03-.79-.58-1.47-1.37-1.5-.79-.04-1.47.58-1.5 1.37"/><path class="m" d="M174.76 4.91a1.286 1.286 0 1 0 2.57.11 1.286 1.286 0 0 0-2.57-.11"/><path class="i" d="M169.25 15.08c-.03.65.48 1.2 1.13 1.23.65.03 1.21-.48 1.24-1.13.03-.65-.48-1.2-1.13-1.23-.65-.03-1.2.48-1.23 1.13M173.67 46.81c-.03.65.48 1.2 1.13 1.23.65.03 1.2-.48 1.23-1.13.03-.65-.48-1.21-1.13-1.23-.65-.03-1.2.48-1.23 1.13"/><path class="m" d="M152 43.57c-.03.71.51 1.31 1.23 1.34a1.286 1.286 0 1 0-1.23-1.34"/><path class="i" d="M165.82 36.3c-.03.65.48 1.2 1.13 1.23.65.03 1.21-.48 1.23-1.13.03-.65-.48-1.2-1.13-1.23-.65-.03-1.2.48-1.23 1.13M160.54 32.89c-.03.65.48 1.2 1.13 1.23.65.03 1.2-.48 1.23-1.13.03-.65-.48-1.2-1.13-1.23-.65-.03-1.2.48-1.23 1.13M164.34 39.43c-.03.65.48 1.2 1.13 1.23.65.03 1.21-.48 1.24-1.13.03-.65-.48-1.2-1.13-1.23-.65-.03-1.2.48-1.23 1.13"/><path class="j" d="M156.75 50.9c-.03.73.53 1.34 1.25 1.37.72.03 1.34-.53 1.37-1.25.03-.72-.53-1.34-1.25-1.37-.72-.03-1.34.53-1.37 1.25M167.68 48.74c-.02.46.33.84.79.86.46.02.84-.33.86-.79a.82.82 0 0 0-.79-.86.82.82 0 0 0-.86.79"/><path class="g" d="M172.03 56.72c-.02.43.31.79.74.81.43.02.79-.31.81-.74a.773.773 0 0 0-.74-.81.773.773 0 0 0-.81.74M162.71 51.74c-.02.43.32.79.74.81.43.02.79-.31.81-.74a.773.773 0 0 0-.74-.81.773.773 0 0 0-.81.74M157.5 53.32c-.02.43.32.79.74.81.43.02.79-.31.81-.74a.773.773 0 0 0-.74-.81.773.773 0 0 0-.81.74M168.41 56.37c-.02.43.31.79.74.81.43.02.79-.31.81-.74a.773.773 0 0 0-.74-.81.773.773 0 0 0-.81.74M167.67 59.37c-.02.43.31.79.74.81.43.02.79-.31.81-.74a.773.773 0 0 0-.74-.81.773.773 0 0 0-.81.74M160.27 56.01c-.02.43.31.79.74.81.43.02.79-.31.81-.74a.773.773 0 0 0-.74-.81.773.773 0 0 0-.81.74M170.92 48.56c-.03.75.55 1.39 1.3 1.42.75.03 1.39-.55 1.42-1.3.03-.75-.55-1.39-1.3-1.42-.75-.03-1.39.55-1.42 1.3"/><path class="m" d="M157.29 48.07c-.03.67.49 1.24 1.16 1.27.67.03 1.24-.49 1.27-1.16.03-.67-.49-1.24-1.16-1.27-.67-.03-1.24.49-1.27 1.16M159.51 52.19c-.03.67.49 1.24 1.16 1.27.67.03 1.24-.49 1.27-1.16.03-.67-.49-1.24-1.16-1.27-.67-.03-1.24.49-1.27 1.16M169.37 51.5c-.03.67.49 1.24 1.16 1.27.67.03 1.24-.49 1.27-1.16.03-.67-.49-1.24-1.16-1.27-.67-.03-1.24.49-1.27 1.16"/><path class="j" d="M161.22 54.32a1.316 1.316 0 0 0 2.63.12c.03-.72-.53-1.34-1.25-1.37a1.31 1.31 0 0 0-1.37 1.25"/><path class="m" d="M163.7 55.6c-.03.67.49 1.24 1.16 1.27.67.03 1.24-.49 1.27-1.16.03-.67-.49-1.24-1.16-1.27-.67-.03-1.24.49-1.27 1.16M159.54 49.69c-.02.43.31.79.74.8.42.02.79-.31.81-.74a.759.759 0 0 0-.74-.8.77.77 0 0 0-.8.74"/><path class="j" d="M165.81 57.45a1.318 1.318 0 0 0 2.63.12c.03-.72-.53-1.34-1.25-1.37a1.31 1.31 0 0 0-1.37 1.25"/><path class="m" d="M173.86 49.17a.77.77 0 1 0 1.54.06.77.77 0 0 0-1.54-.06M164.94 59.5c-.02.42.31.78.74.8a.772.772 0 0 0 .07-1.54.773.773 0 0 0-.81.74M164.54 62c-.02.43.31.78.74.8a.772.772 0 0 0 .07-1.54.759.759 0 0 0-.8.74M170.64 60.31a.77.77 0 1 0 1.54.06.772.772 0 0 0-.73-.81.773.773 0 0 0-.81.74M160.72 48.3c-.02.42.31.78.74.8.43.02.79-.31.81-.73a.77.77 0 1 0-1.54-.07M162.18 56.75a.772.772 0 0 0 1.54.07.77.77 0 1 0-1.54-.07M158.44 55.9c-.02.42.31.78.73.8.43.02.79-.31.81-.74a.77.77 0 1 0-1.54-.07M161.49 50.17c-.02.43.31.79.73.81.43.02.79-.31.8-.74a.759.759 0 0 0-.74-.8.764.764 0 0 0-.8.74M167.81 52.65c-.02.43.31.79.73.8.43.02.79-.31.8-.74a.77.77 0 0 0-.74-.8.763.763 0 0 0-.8.73M160.14 59.03c-.02.43.31.79.73.8.43.02.79-.31.8-.74a.77.77 0 0 0-.74-.8.763.763 0 0 0-.8.73M166.78 49.14c-.04.94.69 1.73 1.63 1.78.94.04 1.73-.69 1.78-1.62.04-.94-.69-1.73-1.63-1.78-.94-.04-1.73.69-1.78 1.62"/><path class="g" d="M159.14 57.39c-.02.43.31.79.74.81.43.02.79-.31.81-.74a.773.773 0 0 0-.74-.81.773.773 0 0 0-.81.74M163.32 60.39c-.02.43.31.79.74.81.43.02.79-.31.81-.74a.78.78 0 0 0-.74-.81.773.773 0 0 0-.81.74M172.63 50.88c-.02.43.31.79.74.81.43.02.79-.31.81-.74a.773.773 0 0 0-.74-.81.773.773 0 0 0-.81.74M161.6 46.71c-.02.43.31.79.74.81.43.02.79-.31.81-.74a.773.773 0 0 0-.74-.81.773.773 0 0 0-.81.74M163.94 57.92c-.02.43.32.79.74.81.43.02.79-.31.81-.74a.773.773 0 0 0-.74-.81.773.773 0 0 0-.81.74M165.07 47.72c-.02.43.31.79.74.81.43.02.79-.31.81-.74a.773.773 0 0 0-.74-.81.773.773 0 0 0-.81.74"/><path class="h" d="M165.53 51.87c-.03.62.45 1.14 1.07 1.17.62.03 1.14-.45 1.17-1.07a1.12 1.12 0 0 0-1.07-1.17c-.61-.03-1.14.45-1.17 1.07M166.42 54.6c-.03.62.45 1.14 1.07 1.17.62.03 1.14-.45 1.17-1.07a1.12 1.12 0 0 0-1.07-1.17 1.12 1.12 0 0 0-1.17 1.07"/><path class="h" d="M163.89 50.13c-.03.62.45 1.14 1.07 1.17.62.03 1.14-.45 1.17-1.07a1.12 1.12 0 0 0-1.07-1.17 1.12 1.12 0 0 0-1.17 1.07"/><path class="j" d="M162.1 58.67c-.02.46.33.84.79.86.46.02.84-.33.86-.79a.82.82 0 0 0-.79-.86.82.82 0 0 0-.86.79M162.66 48.03a.995.995 0 1 0 1.97.29.995.995 0 0 0-1.97-.29M168.82 54.1a.995.995 0 1 0 1.97.29.995.995 0 0 0-1.97-.29M170.28 56.03c-.02.46.33.84.79.86.46.02.84-.33.86-.79a.826.826 0 0 0-1.65-.07M161.25 60.74c-.02.46.33.84.79.86.46.02.84-.33.86-.79a.826.826 0 0 0-1.65-.07M164.04 53.25c-.02.46.33.84.79.86.46.02.84-.33.86-.79a.826.826 0 0 0-1.65-.07M168.8 60.81c-.02.46.33.84.79.86.46.02.84-.33.86-.79a.826.826 0 0 0-1.65-.07"/><path class="h" d="M169.37 58.41c-.03.62.45 1.14 1.07 1.17.62.03 1.14-.45 1.17-1.07a1.12 1.12 0 0 0-1.07-1.17 1.12 1.12 0 0 0-1.17 1.07"/><path class="m" d="M171.32 53.83c-.04.94.69 1.73 1.63 1.78.94.04 1.73-.69 1.78-1.62.04-.94-.69-1.74-1.63-1.78-.94-.04-1.73.69-1.78 1.63"/></g><g id="d"><path class="l" d="m11.93 19.11 1.94.59c-.43 2-1.18 3.49-2.25 4.47-1.07.98-2.38 1.47-3.91 1.47-1.35 0-2.5-.33-3.46-.99-.96-.66-1.74-1.72-2.35-3.17-.61-1.46-.92-3.18-.92-5.16s.31-3.61.92-4.97C2.51 10 3.34 8.97 4.38 8.28s2.21-1.04 3.5-1.04c1.41 0 2.62.44 3.63 1.31 1.01.88 1.72 2.16 2.12 3.85l-1.89.55c-.65-2.47-1.95-3.7-3.9-3.7-.97 0-1.81.25-2.53.75-.71.5-1.28 1.27-1.71 2.32-.42 1.05-.64 2.38-.64 3.99 0 2.44.43 4.26 1.29 5.48s2 1.83 3.42 1.83c1.05 0 1.96-.37 2.72-1.12s1.28-1.88 1.53-3.4ZM16.32 25.34V7.56h10.54v2.1h-8.61v5.43h8.06v2.1h-8.06v6.05h8.95v2.1H16.32ZM29.8 25.34V7.56h1.98l7.67 13.99V7.56h1.84v17.78h-1.98l-7.65-13.99v13.99H29.8ZM48.3 25.34V9.66h-4.8v-2.1h11.56v2.1h-4.83v15.68H48.3ZM57.04 25.34V7.56h10.54v2.1h-8.61v5.43h8.06v2.1h-8.06v6.05h8.95v2.1H57.04ZM70.58 25.34V7.56h6.46c1.35 0 2.35.17 2.99.5.64.33 1.17.88 1.58 1.65.41.77.62 1.67.62 2.68 0 1.34-.35 2.43-1.05 3.26s-1.72 1.36-3.05 1.59c.54.33.95.66 1.24.99.57.68 1.08 1.44 1.52 2.27l2.55 4.84h-2.43l-1.94-3.7c-.75-1.45-1.32-2.42-1.71-2.92-.38-.5-.75-.84-1.11-1.01-.36-.17-.86-.26-1.51-.26h-2.23v7.9h-1.93Zm1.93-9.93h4.15c.91 0 1.59-.11 2.06-.33.47-.22.84-.56 1.12-1.03.27-.47.41-1.01.41-1.64 0-.9-.26-1.6-.79-2.12-.53-.51-1.31-.77-2.34-.77h-4.61v5.88ZM91.09 25.34V7.56h9.84v2.1h-7.91v5.51h6.84v2.1h-6.84v8.08h-1.93ZM102.85 16.68c0-3.03.67-5.36 2-6.99s3-2.44 4.98-2.44c1.29 0 2.46.36 3.52 1.09 1.06.73 1.9 1.78 2.52 3.17.62 1.39.93 3.04.93 4.95 0 2.64-.6 4.78-1.79 6.44-1.32 1.83-3.04 2.74-5.18 2.74s-3.88-.94-5.19-2.81c-1.19-1.7-1.78-3.75-1.78-6.15Zm1.99.03c0 2.19.48 3.89 1.45 5.1.97 1.21 2.14 1.81 3.52 1.81s2.6-.61 3.56-1.83 1.44-3.02 1.44-5.39c0-1.53-.25-2.9-.74-4.1-.38-.92-.95-1.66-1.72-2.22s-1.6-.83-2.5-.83c-1.46 0-2.65.61-3.6 1.82-.94 1.21-1.41 3.09-1.41 5.63ZM119.24 25.34V7.56h6.46c1.35 0 2.35.17 2.99.5.64.33 1.17.88 1.58 1.65.41.77.62 1.67.62 2.68 0 1.34-.35 2.43-1.05 3.26-.7.83-1.72 1.36-3.05 1.59.54.33.95.66 1.24.99.57.68 1.08 1.44 1.52 2.27l2.55 4.84h-2.42l-1.94-3.7c-.75-1.45-1.32-2.42-1.71-2.92s-.75-.84-1.11-1.01c-.36-.17-.86-.26-1.51-.26h-2.23v7.9h-1.93Zm1.93-9.93h4.15c.91 0 1.59-.11 2.06-.33.47-.22.84-.56 1.12-1.03.27-.47.41-1.01.41-1.64 0-.9-.26-1.6-.79-2.12-.53-.51-1.31-.77-2.34-.77h-4.61v5.88Z"/><g><path class="l" d="m0 57.83 8.22-25.99h3.01l8.73 25.99h-3.23l-2.48-7.87H5.29l-2.32 7.87H0Zm6.11-10.67h7.26l-2.21-7.2c-.69-2.21-1.19-4.01-1.51-5.39a37.56 37.56 0 0 1-1.17 4.96l-2.37 7.62ZM36.11 31.84h2.82v15.01c0 2.52-.25 4.58-.73 6.2-.49 1.61-1.38 2.89-2.67 3.82-1.29.93-2.94 1.4-4.93 1.4-2.81 0-4.91-.84-6.31-2.52-1.4-1.68-2.1-4.64-2.1-8.9V31.84h2.82v15c0 2.35.18 4.05.55 5.11s.97 1.85 1.8 2.4c.83.55 1.85.82 3.04.82 2.01 0 3.47-.57 4.37-1.7.9-1.13 1.36-3.34 1.36-6.63v-15ZM49.14 57.83V34.91h-7.02v-3.07h16.89v3.07h-7.06v22.92h-2.82ZM62.39 57.83V31.84h2.82v25.99h-2.82ZM69.18 49.46l2.66-.28c.14 1.43.46 2.54.97 3.34.5.8 1.22 1.44 2.15 1.92.93.48 1.98.73 3.15.73 1.68 0 2.98-.41 3.91-1.23.93-.82 1.39-1.88 1.39-3.19 0-.77-.17-1.44-.51-2.01-.34-.57-.84-1.04-1.52-1.41-.68-.37-2.15-.88-4.4-1.55-2.01-.6-3.44-1.2-4.29-1.8-.85-.6-1.51-1.37-1.99-2.3-.47-.93-.71-1.98-.71-3.15 0-2.1.68-3.82 2.04-5.16 1.36-1.34 3.19-2 5.49-2 1.58 0 2.97.31 4.16.94A6.71 6.71 0 0 1 84.45 35c.66 1.17 1.01 2.55 1.05 4.13l-2.71.25c-.14-1.69-.65-2.94-1.52-3.76s-2.09-1.22-3.66-1.22-2.81.36-3.65 1.07c-.84.71-1.26 1.64-1.26 2.77 0 1.05.31 1.87.92 2.45s2 1.17 4.15 1.76c2.1.58 3.58 1.09 4.43 1.51 1.3.67 2.28 1.54 2.94 2.62s.99 2.37.99 3.87-.35 2.84-1.05 4.06-1.65 2.15-2.84 2.79c-1.2.64-2.64.96-4.33.96-2.64 0-4.74-.79-6.3-2.38-1.57-1.58-2.38-3.73-2.44-6.43ZM89.91 57.83V31.84h4.24l5.06 18.4 1.01 3.85c.25-.96.63-2.35 1.14-4.17l5.11-18.08h3.79v25.99h-2.71V36.1l-6.21 21.73h-2.53l-6.18-22.11v22.11h-2.71ZM114.85 57.83V31.84h15.4v3.07h-12.58v7.94h11.79v3.07h-11.79v8.85h13.08v3.07h-15.9Z"/></g></g></g></svg>